<?xml version="1.0" encoding="iso-8859-1"?>
<!-- Generator: Adobe Illustrator 19.0.0, SVG Export Plug-In . SVG Version: 6.00 Build 0)  -->
<svg xmlns="http://www.w3.org/2000/svg" xmlns:xlink="http://www.w3.org/1999/xlink" version="1.1" id="Layer_1" x="0px" y="0px" viewBox="0 0 512 512" style="enable-background:new 0 0 512 512;" xml:space="preserve" width="512px" height="512px">
<g>
	<g>
		<g>
			<path d="M42.667,162.133h222.916c18.551,0,33.084-14.993,33.084-34.133s-14.532-34.133-33.084-34.133     c-9.131,0-17.715,3.558-24.158,10.01c-3.328,3.336-3.319,8.738,0.009,12.066c3.337,3.337,8.738,3.328,12.075-0.009     c3.217-3.226,7.509-5,12.075-5c9.131,0,16.017,7.339,16.017,17.067c0,9.728-6.886,17.067-16.017,17.067H42.667     c-4.71,0-8.533,3.823-8.533,8.533C34.133,158.31,37.956,162.133,42.667,162.133z" fill="#FFFFFF"/>
			<path d="M25.6,213.333h375.467c36.258,0,76.8-32.845,76.8-76.8s-40.542-76.8-76.8-76.8c-42.342,0-76.8,34.458-76.8,76.8     c0,4.71,3.823,8.533,8.533,8.533c4.71,0,8.533-3.823,8.533-8.533c0-32.939,26.795-59.733,59.733-59.733     c27.622,0,59.733,26.095,59.733,59.733s-32.111,59.733-59.733,59.733H25.6c-4.71,0-8.533,3.823-8.533,8.533     S20.89,213.333,25.6,213.333z" fill="#FFFFFF"/>
			<path d="M460.8,247.467H8.533C3.823,247.467,0,251.29,0,256c0,4.71,3.823,8.533,8.533,8.533H460.8     c18.825,0,34.133,15.309,34.133,34.133c0,18.825-15.309,34.133-34.133,34.133c-18.825,0-34.133-15.309-34.133-34.133     c0-4.71-3.823-8.533-8.533-8.533s-8.533,3.823-8.533,8.533c0,28.237,22.963,51.2,51.2,51.2c28.237,0,51.2-22.963,51.2-51.2     C512,270.43,489.037,247.467,460.8,247.467z" fill="#FFFFFF"/>
			<path d="M238.933,349.867H42.667c-4.71,0-8.533,3.823-8.533,8.533s3.823,8.533,8.533,8.533h196.267     c18.825,0,34.133,15.309,34.133,34.133c0,18.825-15.309,34.133-34.133,34.133S204.8,419.891,204.8,401.067     c0-4.71-3.823-8.533-8.533-8.533s-8.533,3.823-8.533,8.533c0,28.237,22.963,51.2,51.2,51.2s51.2-22.963,51.2-51.2     C290.133,372.83,267.17,349.867,238.933,349.867z" fill="#FFFFFF"/>
			<path d="M341.333,298.667H25.6c-4.71,0-8.533,3.823-8.533,8.533s3.823,8.533,8.533,8.533h315.733     c9.412,0,17.067,7.654,17.067,17.067c0,9.412-7.654,17.067-17.067,17.067c-4.565,0-8.858-1.775-12.083-5.001     c-3.319-3.337-8.721-3.354-12.066-0.009c-3.328,3.328-3.337,8.73-0.009,12.066c6.443,6.451,15.027,10.01,24.158,10.01     c18.825,0,34.133-15.309,34.133-34.133C375.467,313.975,360.158,298.667,341.333,298.667z" fill="#FFFFFF"/>
		</g>
	</g>
</g>
<g>
</g>
<g>
</g>
<g>
</g>
<g>
</g>
<g>
</g>
<g>
</g>
<g>
</g>
<g>
</g>
<g>
</g>
<g>
</g>
<g>
</g>
<g>
</g>
<g>
</g>
<g>
</g>
<g>
</g>
</svg>
